<?xml version="1.0" encoding="UTF-8" standalone="no"?>
<!-- Created with Inkscape (http://www.inkscape.org/) -->

<svg
   xmlns:dc="http://purl.org/dc/elements/1.1/"
   xmlns:cc="http://creativecommons.org/ns#"
   xmlns:rdf="http://www.w3.org/1999/02/22-rdf-syntax-ns#"
   xmlns:svg="http://www.w3.org/2000/svg"
   xmlns="http://www.w3.org/2000/svg"
   version="1.1"
   width="30.875"
   height="28.9375"
   id="svg3006">
  <defs
     id="defs3008" />
  <metadata
     id="metadata3011">
    <rdf:RDF>
      <cc:Work
         rdf:about="">
        <dc:format>image/svg+xml</dc:format>
        <dc:type
           rdf:resource="http://purl.org/dc/dcmitype/StillImage" />
        <dc:title></dc:title>
      </cc:Work>
    </rdf:RDF>
  </metadata>
  <g
     transform="translate(-335.19502,-517.88392)"
     id="layer1">
    <g
       transform="translate(414.85127,142.32142)"
       id="layer1-0">
      <rect
         width="23.928564"
         height="23.928564"
         x="-77.14286"
         y="378.07648"
         id="rect2993"
         style="fill:none;stroke:#000000;stroke-opacity:1" />
      <path
         d="m -72.857639,390.93063 c 0.332665,0.61997 0.685797,1.07206 0.99784,1.63335 0.145884,0.47066 0.364551,0.76593 0.662663,1.10336 0.675633,1.00788 1.442785,1.9387 2.271296,2.79895 0.588342,0.68501 1.242584,1.29501 1.969666,1.79629 0.197021,0.12584 0.379429,0.11332 0.592639,0.0889 -1.021901,0.19494 -2.043803,0.38988 -3.065705,0.58483 0.08459,-0.0448 0.07317,-0.0282 0.138484,-0.1065 0.398161,-0.47721 0.841408,-0.89747 1.275867,-1.33699 1.838086,-1.83435 3.42218,-3.93978 5.023569,-6.01378 1.050996,-1.36118 2.097321,-2.72664 3.147288,-4.08877 1.484728,-1.90919 3.135583,-3.64982 4.810281,-5.35655 l 1.702214,-0.0222 -1.199556,1.62571 c -1.481664,1.71752 -1.21905,1.55459 -2.784365,3.51253 -1.503569,1.93304 -1.654822,2.10405 -3.120038,4.08226 -1.500663,2.02608 -2.940472,4.11492 -4.59096,6.00205 -0.186399,0.22697 -0.370029,0.4567 -0.559195,0.68092 -0.158851,0.18829 -0.358382,0.33669 -0.498083,0.54229 -0.01351,0.0199 -0.197079,0.0937 -0.24682,0.10614 -1.071842,0.26776 -2.030591,0.64181 -3.10902,0.87591 -0.232178,-0.0285 -0.428008,-0.15258 -0.612944,-0.30549 -0.657535,-0.57946 -1.270197,-1.21301 -1.857197,-1.87659 -0.844867,-0.87761 -1.644932,-1.81293 -2.295896,-2.8738 -0.222865,-0.37545 -0.458933,-0.74154 -0.678016,-1.11965 -0.311982,-0.53842 -0.775518,-1.29856 -0.969037,-2.09485 l 2.995025,-0.23829 z"
         id="path3796"
         style="fill:#00aa00;fill-opacity:1;stroke:#00aa00;stroke-width:2.54372835;stroke-miterlimit:4;stroke-opacity:1;stroke-dasharray:none" />
    </g>
  </g>
</svg>
